<?xml version="1.0" encoding="utf-8"?>
<!-- Generator: Adobe Illustrator 21.1.0, SVG Export Plug-In . SVG Version: 6.00 Build 0)  -->
<svg version="1.1" id="Layer_1" xmlns="http://www.w3.org/2000/svg" xmlns:xlink="http://www.w3.org/1999/xlink" x="0px" y="0px"
	 viewBox="0 0 98.7 61.1" style="enable-background:new 0 0 98.7 61.1;" xml:space="preserve">
<style type="text/css">
	.st0{opacity:0.512;}
	.st1{fill:#FFFFFF;}
</style>
<g id="DownArrow" transform="translate(-910.939 -973.5)">
	<g id="Group_11" transform="translate(-3986 712.028)" class="st0">
		<path id="Rectangle_38" class="st1" d="M4902.9,304.7l37.3-37.3c3.3-3.3,8.6-3.3,11.9,0l0,0c3.3,3.3,3.3,8.6,0,11.9l-37.3,37.3
			c-3.3,3.3-8.6,3.3-11.9,0l0,0C4899.6,313.3,4899.6,308,4902.9,304.7z"/>
		<path id="Rectangle_42" class="st1" d="M4977.8,316.6l-37.3-37.3c-3.3-3.3-3.3-8.6,0-11.9l0,0c3.3-3.3,8.6-3.3,11.9,0l37.3,37.3
			c3.3,3.3,3.3,8.6,0,11.9l0,0C4986.4,319.9,4981.1,319.9,4977.8,316.6z"/>
	</g>
</g>
</svg>
